<svg width="40" height="40" viewBox="0 0 40 40" fill="none" xmlns="http://www.w3.org/2000/svg">
<path d="M39.3833 7.77789C38.6133 6.45455 37.1967 5.55566 35.5556 5.55566H20V7.77789H39.3833ZM0 27.7779H40V30.0001H0V27.7779ZM20 18.889H40V21.1112H20V18.889ZM20 14.4446H40V16.6668H20V14.4446ZM0 23.3334H40V25.5557H0V23.3334ZM4.44444 34.4446H35.5556C37.1967 34.4446 38.6133 33.5457 39.3833 32.2223H0.616667C1.38667 33.5457 2.80333 34.4446 4.44444 34.4446ZM20 10.0001H40V12.2223H20V10.0001Z" fill="#B22334"/>
<path d="M0.0755556 30.7545C0.0940741 30.8582 0.115926 30.9608 0.141111 31.0623C0.170741 31.1734 0.204815 31.283 0.243333 31.3912C0.342222 31.6789 0.462222 31.9567 0.613333 32.2167L0.616667 32.2223H39.3833L39.3856 32.2178C39.5361 31.9566 39.6597 31.6807 39.7544 31.3945C39.8266 31.1857 39.883 30.9717 39.9233 30.7545C39.9689 30.5101 40 30.2589 40 30.0001H0C0 30.2589 0.0311111 30.5089 0.0755556 30.7545ZM0 25.5556H40V27.7778H0V25.5556ZM0 21.1112V23.3334H40V21.1112H20H0ZM20 16.6667H40V18.8889H20V16.6667ZM20 12.2223H40V14.4445H20V12.2223ZM0.142222 8.93783C0.17 8.8245 0.208889 8.71672 0.244444 8.60783C0.206106 8.71647 0.172007 8.82655 0.142222 8.93783ZM20 10.0001H40C40 9.74117 39.9689 9.49005 39.9233 9.2445C39.8845 9.02683 39.8276 8.81277 39.7533 8.6045C39.6585 8.31706 39.5345 8.04007 39.3833 7.77783H20V10.0001Z" fill="#EEEEEE"/>
<path d="M20 5.55566H4.44444C3.2657 5.55566 2.13524 6.02392 1.30175 6.85741C0.468253 7.69091 0 8.82137 0 10.0001L0 21.1112H20V5.55566Z" fill="#3C3B6E"/>
<path d="M2.22314 8.5845L2.90981 9.08339L2.64759 9.88894L3.33314 9.39116L4.01981 9.88894L3.75759 9.08339L4.44426 8.5845H3.59537L3.33314 7.77783L3.07203 8.5845H2.22314ZM4.44537 10.8067L5.13203 11.3056L4.86981 12.1112L5.55537 11.6134L6.24203 12.1112L5.97981 11.3056L6.66648 10.8067H5.81759L5.55537 10.0001L5.29426 10.8067H4.44537ZM8.88981 10.8067L9.57648 11.3056L9.31426 12.1112L9.99981 11.6134L10.6865 12.1112L10.4243 11.3056L11.1109 10.8067H10.262L9.99981 10.0001L9.7387 10.8067H8.88981ZM13.3343 10.8067L14.0209 11.3056L13.7587 12.1112L14.4443 11.6134L15.1309 12.1112L14.8687 11.3056L15.5554 10.8067H14.7065L14.4443 10.0001L14.1831 10.8067H13.3343ZM4.44537 15.2512L5.13203 15.7501L4.86981 16.5556L5.55537 16.0578L6.24203 16.5556L5.97981 15.7501L6.66648 15.2512H5.81759L5.55537 14.4445L5.29426 15.2512H4.44537ZM8.88981 15.2512L9.57648 15.7501L9.31426 16.5556L9.99981 16.0578L10.6865 16.5556L10.4243 15.7501L11.1109 15.2512H10.262L9.99981 14.4445L9.7387 15.2512H8.88981ZM13.3343 15.2512L14.0209 15.7501L13.7587 16.5556L14.4443 16.0578L15.1309 16.5556L14.8687 15.7501L15.5554 15.2512H14.7065L14.4443 14.4445L14.1831 15.2512H13.3343ZM6.66759 8.5845L7.35426 9.08339L7.09203 9.88894L7.77759 9.39116L8.46426 9.88894L8.20203 9.08339L8.8887 8.5845H8.03981L7.77759 7.77783L7.51648 8.5845H6.66759ZM11.112 8.5845L11.7987 9.08339L11.5365 9.88894L12.222 9.39116L12.9087 9.88894L12.6465 9.08339L13.3331 8.5845H12.4843L12.222 7.77783L11.9609 8.5845H11.112ZM15.5565 8.5845L16.2431 9.08339L15.9809 9.88894L16.6665 9.39116L17.3531 9.88894L17.0909 9.08339L17.7776 8.5845H16.9287L16.6665 7.77783L16.4054 8.5845H15.5565ZM2.22314 13.0289L2.90981 13.5278L2.64759 14.3334L3.33314 13.8356L4.01981 14.3334L3.75759 13.5278L4.44426 13.0289H3.59537L3.33314 12.2223L3.07203 13.0289H2.22314ZM7.09203 14.3334L7.77759 13.8356L8.46426 14.3334L8.20203 13.5278L8.8887 13.0289H8.03981L7.77759 12.2223L7.51648 13.0289H6.66759L7.35426 13.5278L7.09203 14.3334ZM11.112 13.0289L11.7987 13.5278L11.5365 14.3334L12.222 13.8356L12.9087 14.3334L12.6465 13.5278L13.3331 13.0289H12.4843L12.222 12.2223L11.9609 13.0289H11.112ZM15.5565 13.0289L16.2431 13.5278L15.9809 14.3334L16.6665 13.8356L17.3531 14.3334L17.0909 13.5278L17.7776 13.0289H16.9287L16.6665 12.2223L16.4054 13.0289H15.5565ZM2.22314 17.4734L2.90981 17.9723L2.64759 18.7778L3.33314 18.2801L4.01981 18.7778L3.75759 17.9723L4.44426 17.4734H3.59537L3.33314 16.6667L3.07203 17.4734H2.22314ZM7.09203 18.7778L7.77759 18.2801L8.46426 18.7778L8.20203 17.9723L8.8887 17.4734H8.03981L7.77759 16.6667L7.51648 17.4734H6.66759L7.35426 17.9723L7.09203 18.7778ZM11.112 17.4734L11.7987 17.9723L11.5365 18.7778L12.222 18.2801L12.9087 18.7778L12.6465 17.9723L13.3331 17.4734H12.4843L12.222 16.6667L11.9609 17.4734H11.112ZM15.5565 17.4734L16.2431 17.9723L15.9809 18.7778L16.6665 18.2801L17.3531 18.7778L17.0909 17.9723L17.7776 17.4734H16.9287L16.6665 16.6667L16.4054 17.4734H15.5565Z" fill="white"/>
</svg>
