<svg width="40" height="40" viewBox="0 0 40 40" fill="none" xmlns="http://www.w3.org/2000/svg">
<path d="M40 30.0001C40 31.1788 39.5317 32.3093 38.6983 33.1428C37.8648 33.9763 36.7343 34.4446 35.5556 34.4446H4.44444C3.2657 34.4446 2.13524 33.9763 1.30175 33.1428C0.468253 32.3093 0 31.1788 0 30.0001V10.0001C0 8.82137 0.468253 7.69091 1.30175 6.85741C2.13524 6.02392 3.2657 5.55566 4.44444 5.55566H35.5556C36.7343 5.55566 37.8648 6.02392 38.6983 6.85741C39.5317 7.69091 40 8.82137 40 10.0001V30.0001Z" fill="#C60A1D"/>
<path d="M0 13.3335H40V26.6668H0V13.3335Z" fill="#FFC400"/>
<path d="M10 18.8887V22.222C10 23.1061 10.3512 23.9539 10.9763 24.579C11.6014 25.2041 12.4493 25.5553 13.3333 25.5553C14.2174 25.5553 15.0652 25.2041 15.6904 24.579C16.3155 23.9539 16.6667 23.1061 16.6667 22.222V18.8887H10Z" fill="#EA596E"/>
<path d="M13.3335 17.7778H16.6668V21.1112H13.3335V17.7778Z" fill="#F4A2B2"/>
<path d="M10 17.7778H13.3333V21.1112H10V17.7778Z" fill="#DD2E44"/>
<path d="M13.3333 17.7777C15.1743 17.7777 16.6667 17.0315 16.6667 16.111C16.6667 15.1905 15.1743 14.4443 13.3333 14.4443C11.4924 14.4443 10 15.1905 10 16.111C10 17.0315 11.4924 17.7777 13.3333 17.7777Z" fill="#EA596E"/>
<path d="M13.3333 16.111C15.1743 16.111 16.6667 15.7379 16.6667 15.2777C16.6667 14.8174 15.1743 14.4443 13.3333 14.4443C11.4924 14.4443 10 14.8174 10 15.2777C10 15.7379 11.4924 16.111 13.3333 16.111Z" fill="#FFAC33"/>
<path d="M7.77783 17.7778H8.88894V25.5556H7.77783V17.7778ZM17.7778 17.7778H18.8889V25.5556H17.7778V17.7778Z" fill="#99AAB5"/>
<path d="M6.6665 24.4443H9.99984V25.5554H6.6665V24.4443ZM16.6665 24.4443H19.9998V25.5554H16.6665V24.4443ZM7.77761 16.6665H8.88873V17.7776H7.77761V16.6665ZM17.7776 16.6665H18.8887V17.7776H17.7776V16.6665Z" fill="#66757F"/>
</svg>
