<svg width="40" height="40" viewBox="0 0 40 40" fill="none" xmlns="http://www.w3.org/2000/svg">
<path d="M40 26.875C40 30.6719 37.8919 33.75 33.75 33.75H6.25C2.10813 33.75 0 30.6719 0 26.875V13.125C0 9.32813 2.10813 6.25 6.25 6.25H33.75C37.8919 6.25 40 9.32813 40 13.125V26.875Z" fill="#EC1C24"/>
<path d="M8.10678 10.4098L9.44365 13.1248L12.4405 13.5592L10.2737 15.6686L10.7843 18.6561L8.10678 17.2467L5.42865 18.6561L5.9399 15.6686L3.7749 13.5592L6.76678 13.1248L8.10678 10.4098ZM12.8168 8.12109L13.1874 8.87422L14.0212 8.99484L13.4193 9.58172L13.5599 10.4098L12.8168 10.0186L12.0743 10.4098L12.2149 9.58172L11.6137 8.99484L12.4455 8.87422L12.8168 8.12109ZM15.2237 10.8298L15.5949 11.5823L16.4249 11.7036L15.8255 12.2917L15.9668 13.1186L15.2237 12.728L14.4812 13.1186L14.6218 12.2917L14.0212 11.7036L14.8518 11.5823L15.2237 10.8298ZM15.2237 15.1773L15.5949 15.9317L16.4249 16.0523L15.8255 16.6392L15.9668 17.4673L15.2237 17.0773L14.4812 17.4673L14.6218 16.6392L14.0212 16.0523L14.8518 15.9317L15.2237 15.1773ZM12.8168 18.2311L13.1874 18.9842L14.0212 19.1042L13.4193 19.6905L13.5599 20.5198L12.8168 20.1311L12.0743 20.5198L12.2149 19.6905L11.6137 19.1042L12.4455 18.9842L12.8168 18.2311Z" fill="#F9CB38"/>
</svg>
